<mxfile host="app.diagrams.net" modified="2022-12-13T06:41:22.213Z" agent="5.0 (X11; Linux x86_64) AppleWebKit/537.36 (KHTML, like Gecko) Chrome/108.0.0.0 Safari/537.36" etag="tIUcsElfvsFHPMWJ12u2" version="20.6.2" type="github">
  <diagram name="Asset Token" id="Asset_Token">
    <mxGraphModel dx="2380" dy="820" grid="1" gridSize="10" guides="1" tooltips="1" connect="1" arrows="1" fold="1" page="1" pageScale="1" pageWidth="827" pageHeight="1169" math="0" shadow="0">
      <root>
        <mxCell id="0" />
        <mxCell id="1" parent="0" />
        <mxCell id="BMRI44_Pc0IovrskJfD4-87" value="" style="group" parent="1" vertex="1" connectable="0">
          <mxGeometry x="-40" y="240.97" width="1000" height="895.03" as="geometry" />
        </mxCell>
        <mxCell id="29" style="vsdxID=27;fillColor=none;gradientColor=none;fillOpacity=0;strokeOpacity=0;spacingTop=-3;spacingBottom=-3;spacingLeft=-3;spacingRight=-3;points=[[0,0.5,0],[1,0.5,0],[0.5,1,0],[0.5,0,0]];labelBackgroundColor=none;rounded=1;strokeColor=none;html=1;whiteSpace=wrap;" parent="BMRI44_Pc0IovrskJfD4-87" vertex="1">
          <mxGeometry x="327" y="725.03" width="568" height="170" as="geometry" />
        </mxCell>
        <mxCell id="30" style="vsdxID=28;fillColor=#ffffff;gradientColor=none;fillOpacity=0;strokeOpacity=0;shape=stencil(vVTBcoMgEP0ajjLAGonnNPmBfAFTiTKl4iBtTL++mDUZMTW3ZsYDu++xj7ezK4Fd36hOE8H64N2HPpsqNATeiBCmbbQ3IZ4I7AnsTs7r2ruvtsK4U5Ep2DWjK7zDR7Zgyr8fzY/GHKPA5QYBvPnpvkfFYcIRumAk6BjF74DcWGoUuXHppkC6n/icbqfMnVLIpOJUf8jUYPrMu6CCcW2CWeVrnUWp7GRVnUD9Wetulubzx1nTzoyUJQX4Q3rFiSxTJ4IWkDjhbKU1L/Cy1C4lldtnbgq+dMNSN4/duWv8v52Hobhpr7jJ8+WU5TKdspXuvMLL032Jh+ti4soaa3Gv5/hykWMKfwKw/wU=);spacingTop=-3;spacingBottom=-3;spacingLeft=-3;spacingRight=-3;points=[[0,0.5,0],[1,0.5,0],[0.5,1,0],[0.5,0,0]];labelBackgroundColor=none;rounded=1;html=1;whiteSpace=wrap;" parent="29" vertex="1">
          <mxGeometry width="568" height="170" as="geometry" />
        </mxCell>
        <mxCell id="31" value="&lt;div style=&quot;font-size: 1px&quot;&gt;&lt;p style=&quot;align:center;margin-left:0;margin-right:0;margin-top:0px;margin-bottom:0px;text-indent:0;valign:top;direction:ltr;&quot;&gt;&lt;font style=&quot;font-size:18.34px;font-family:Arial;color:#666666;direction:ltr;letter-spacing:0px;line-height:100%;opacity:1&quot;&gt; - Actor token is a signed JWT including information about device (name, serial number, contact / account to link in SF etc)&lt;br/&gt;&lt;/font&gt;&lt;/p&gt;&lt;p style=&quot;align:center;margin-left:0;margin-right:0;margin-top:0px;margin-bottom:0px;text-indent:0;valign:top;direction:ltr;&quot;&gt;&lt;font style=&quot;font-size:18.34px;font-family:Arial;color:#666666;direction:ltr;letter-spacing:0px;line-height:100%;opacity:1&quot;&gt;If actor by private key, public key bound asset gives proof of possession later calls&lt;br/&gt;&lt;/font&gt;&lt;/p&gt;&lt;p style=&quot;align:center;margin-left:0;margin-right:0;margin-top:0px;margin-bottom:0px;text-indent:0;valign:top;direction:ltr;&quot;&gt;&lt;font style=&quot;font-size:18.34px;font-family:Arial;color:#666666;direction:ltr;letter-spacing:0px;line-height:100%;opacity:1&quot;&gt;Device uses authenticate backend service&lt;br/&gt;&lt;/font&gt;&lt;/p&gt;&lt;p style=&quot;align:center;margin-left:0;margin-right:0;margin-top:0px;margin-bottom:0px;text-indent:0;valign:top;direction:ltr;&quot;&gt;&lt;font style=&quot;font-size:18.34px;font-family:Arial;color:#666666;direction:ltr;letter-spacing:0px;line-height:100%;opacity:1&quot;&gt;Asset can be exchanged for an OAuth access the more efficient exchange (if multiple calls are requried)&lt;br/&gt;&lt;/font&gt;&lt;/p&gt;&lt;p style=&quot;align:left;margin-left:0;margin-right:0;margin-top:0px;margin-bottom:0px;text-indent:0;valign:top;direction:ltr;&quot;&gt;&lt;font style=&quot;font-size:18.34px;font-family:Arial;color:#666666;direction:ltr;letter-spacing:0px;line-height:100%;opacity:1&quot;&gt;Case logging: Subscribe AssetTokenEvent with trigger and create case using context&lt;/font&gt;&lt;/p&gt;&lt;/div&gt;" style="text;vsdxID=27;fillColor=none;gradientColor=none;fillOpacity=0;strokeOpacity=0;spacingTop=-3;spacingBottom=-3;spacingLeft=-3;spacingRight=-3;points=[[0,0.5,0],[1,0.5,0],[0.5,1,0],[0.5,0,0]];labelBackgroundColor=none;rounded=1;strokeColor=none;html=1;whiteSpace=wrap;verticalAlign=top;align=center;;html=1;" parent="29" vertex="1">
          <mxGeometry y="-0.91" width="568.77" height="170.91" as="geometry" />
        </mxCell>
        <mxCell id="BMRI44_Pc0IovrskJfD4-86" value="" style="group" parent="BMRI44_Pc0IovrskJfD4-87" vertex="1" connectable="0">
          <mxGeometry width="1000" height="639" as="geometry" />
        </mxCell>
        <mxCell id="2" style="vsdxID=2;fillColor=none;gradientColor=none;fillOpacity=0;strokeOpacity=0;spacingTop=-3;spacingBottom=-3;spacingLeft=-3;spacingRight=-3;points=[[0,0.5,0],[1,0.5,0],[0.5,1,0],[0.5,0,0]];labelBackgroundColor=none;rounded=1;strokeColor=none;html=1;whiteSpace=wrap;" parent="BMRI44_Pc0IovrskJfD4-86" vertex="1">
          <mxGeometry x="328" y="28.00000000000003" width="401" height="42" as="geometry" />
        </mxCell>
        <mxCell id="3" style="vsdxID=3;fillColor=#ffffff;gradientColor=none;fillOpacity=0;strokeOpacity=0;shape=stencil(vVTbcoMgFPwaHmW4jBKe0/QH+gVMPVGmVBykje3XFz0mI0nMW/MGu8tZ98CRyP3Qmh6IYEMM/gNOto4tkS9ECNu1EGxMKyIPRO6PPkAT/FdX4743SSnYjECNZ/ikFsyE9zf7C4gxKrkqkcCTn/57chwXHqkf3O2oVjPwitpUajI5a6nSKA+LXtFSInKR6DKruNQfCzPaoQg+mmh9l3HOhAaKZFUcnWkyajgB9CuYrz/O2W4VRGvK7lnfTcIpl3kSzmilsiicbfTmCWGuvTWnTD66GF3lcVIzdJbmtj0Xj/+Pc/Mqzt5bz0zkaSq6y+9mqzvPyPJwYNJinkycWescDvaav57kBOFfQB7+AA==);spacingTop=-3;spacingBottom=-3;spacingLeft=-3;spacingRight=-3;points=[[0,0.5,0],[1,0.5,0],[0.5,1,0],[0.5,0,0]];labelBackgroundColor=none;rounded=1;html=1;whiteSpace=wrap;" parent="2" vertex="1">
          <mxGeometry width="401" height="42" as="geometry" />
        </mxCell>
        <mxCell id="4" value="&lt;div style=&quot;font-size: 1px&quot;&gt;&lt;p style=&quot;align:center;margin-left:0;margin-right:0;margin-top:0px;margin-bottom:0px;text-indent:0;valign:middle;direction:ltr;&quot;&gt;&lt;font style=&quot;font-size:26.81px;font-family:Arial;color:#666666;direction:ltr;letter-spacing:0px;line-height:100%;opacity:1&quot;&gt;&lt;b&gt;ASSET TOKEN&lt;/b&gt;&lt;/font&gt;&lt;/p&gt;&lt;/div&gt;" style="text;vsdxID=2;fillColor=none;gradientColor=none;fillOpacity=0;strokeOpacity=0;spacingTop=-3;spacingBottom=-3;spacingLeft=-3;spacingRight=-3;points=[[0,0.5,0],[1,0.5,0],[0.5,1,0],[0.5,0,0]];labelBackgroundColor=none;rounded=1;strokeColor=none;html=1;whiteSpace=wrap;verticalAlign=middle;align=center;;html=1;" parent="2" vertex="1">
          <mxGeometry y="-0.35" width="401.66" height="42.73" as="geometry" />
        </mxCell>
        <mxCell id="5" style="vsdxID=5;fillColor=none;gradientColor=none;strokeColor=none;spacingTop=-3;spacingBottom=-3;spacingLeft=-3;spacingRight=-3;points=[[0,0.5,0],[1,0.5,0],[0.5,1,0],[0.5,0,0],[10.59,1,0],[-10.59,1,0],[-10.59,1,0],[0.13,1,0],[0.13,1,0]];labelBackgroundColor=none;rounded=1;html=1;whiteSpace=wrap;" parent="BMRI44_Pc0IovrskJfD4-86" vertex="1">
          <mxGeometry x="402" y="218.00000000000003" width="18" height="237" as="geometry" />
        </mxCell>
        <mxCell id="6" style="vsdxID=6;fillColor=#ffffff;gradientColor=none;shape=stencil(vVTbcoMgEP0aHmW4xAvPafoD/QKmEmVKxUHbmHx90SWOGCZvzRvsOezhLLsgfhxa2SvEyDA6+6Uuuh5bxN8QY7prldOjXyF+Qvx4tk41zv50Nex76ZmMLBFVwxk6sxmR7vND3xTECOa0zAGAk9/2d1acAg7QNWTAxbJ/B6rPNGsEKi1wCTBxK58fIBI4Xo/QKGUQmDI56SFzdpSjtl2EGekalXmx7GxkE0HDRal+E6bb6xndbZyUAguRkE568fesxN5LUUZeKEkX5wVe9tKiwocnD1Nhke/N5Cwy81idVeP/7Tx2xV087SfHtNr7uXd3sm/X+rzAzNOJ8YtlMmFmtTEw2Ft8P8k+BL8AP/0B);strokeColor=#666666;spacingTop=-3;spacingBottom=-3;spacingLeft=-3;spacingRight=-3;points=[[0,0.5,0],[1,0.5,0],[0.5,1,0],[0.5,0,0]];labelBackgroundColor=none;rounded=1;html=1;whiteSpace=wrap;" parent="5" vertex="1">
          <mxGeometry width="18" height="237" as="geometry" />
        </mxCell>
        <mxCell id="7" style="vsdxID=8;fillColor=none;gradientColor=none;strokeColor=none;spacingTop=-3;spacingBottom=-3;spacingLeft=-3;spacingRight=-3;points=[[0,0.5,0],[1,0.5,0],[0.5,1,0],[0.5,0,0],[-0.13,1,0],[0.13,1,0]];labelBackgroundColor=none;rounded=1;html=1;whiteSpace=wrap;" parent="BMRI44_Pc0IovrskJfD4-86" vertex="1">
          <mxGeometry x="620" y="332" width="18" height="102" as="geometry" />
        </mxCell>
        <mxCell id="8" style="vsdxID=9;fillColor=#ffffff;gradientColor=none;shape=stencil(vVTbcoMgEP0aHmW4jAGe0/QH+gVMJMqUioO0Mf36YtY6ojZvzRvsObtnz+KK+LFvdGcQI30M/t1cbRUbxF8QY7ZtTLAxnRA/IX68+GDq4D/bCu6dTkxG7hFTQQ4d2YzocH6z3wZiBHMqSgAg88N/jYrDhAN0gxvHAoq8AjeVGkUmLj1gCfQw8+kkOlGSHqFZyUlgKPRg+yL4qKP1bYY5HWpTJK3i4nSdQf3VmG4Rzrpztl04EQortSO9ayX1KdXaixSZF0r+GM4TzKy11QEz+eBlFKZibacsMzvb+cwi/+9n+12ouZ19R+Wc8OuIYSEzR9sRqWf5ebw26XDfT9hc6xys9xJf73MKwb+An34A);strokeColor=#666666;spacingTop=-3;spacingBottom=-3;spacingLeft=-3;spacingRight=-3;points=[[0,0.5,0],[1,0.5,0],[0.5,1,0],[0.5,0,0]];labelBackgroundColor=none;rounded=1;html=1;whiteSpace=wrap;" parent="7" vertex="1">
          <mxGeometry width="18" height="102" as="geometry" />
        </mxCell>
        <mxCell id="9" style="vsdxID=11;fillColor=none;gradientColor=none;strokeOpacity=0;spacingTop=-3;spacingBottom=-3;spacingLeft=-3;spacingRight=-3;points=[[0,0.5,0],[1,0.5,0],[0.5,1,0],[0.5,0,0]];labelBackgroundColor=none;rounded=1;strokeColor=none;html=1;whiteSpace=wrap;" parent="BMRI44_Pc0IovrskJfD4-86" vertex="1">
          <mxGeometry x="347" y="147.00000000000003" width="129" height="56" as="geometry" />
        </mxCell>
        <mxCell id="10" style="vsdxID=12;fillColor=#c1e4f7;gradientColor=none;strokeOpacity=0;shape=stencil(vZRdcoMgFIVXw6MMPyrynKYb6AqYSpSpFQdpY7L6otdkpDJ59A3OPXD4kCvip7FVg0aMjN7ZL301tW8Rf0OMmb7VzvgwQvyM+OlinW6c/elrmA8qOBlZFF3DGjq7GVHu88PcNWgEcyoKKMDKb/s7J05rHUo3mAlc8EV4B2/Yag5ZvQyLHOxu9Zf4Efq0SBrtSJ7ClKnJjJmzXnlj+yi+U67RWUjLLp1qotJ41XrYyHR7vs70GxZZYlqm05M8HOdFzCNwlUc8UmIi0ld0BFBIr6J0Gc78CojsPlAlY6DdHVFCjuLZvY5HdpKGYhnD5OEtRzAkfTcHkLxumzBY+hM613QdtPe2/r+fgwT/An7+Aw==);spacingTop=-3;spacingBottom=-3;spacingLeft=-3;spacingRight=-3;points=[[0,0.5,0],[1,0.5,0],[0.5,1,0],[0.5,0,0]];labelBackgroundColor=none;rounded=1;html=1;whiteSpace=wrap;" parent="9" vertex="1">
          <mxGeometry width="129" height="56" as="geometry" />
        </mxCell>
        <mxCell id="11" value="&lt;div style=&quot;font-size: 1px&quot;&gt;&lt;p style=&quot;align:center;margin-left:0;margin-right:0;margin-top:0px;margin-bottom:0px;text-indent:0;valign:middle;direction:ltr;&quot;&gt;&lt;font style=&quot;font-size:21.17px;font-family:Arial;color:#666666;direction:ltr;letter-spacing:0px;line-height:100%;opacity:1&quot;&gt;&lt;b&gt;Client&lt;/b&gt;&lt;/font&gt;&lt;/p&gt;&lt;/div&gt;" style="text;vsdxID=11;fillColor=none;gradientColor=none;strokeOpacity=0;spacingTop=-3;spacingBottom=-3;spacingLeft=-3;spacingRight=-3;points=[[0,0.5,0],[1,0.5,0],[0.5,1,0],[0.5,0,0]];labelBackgroundColor=none;rounded=1;strokeColor=none;html=1;whiteSpace=wrap;verticalAlign=middle;align=center;;html=1;" parent="9" vertex="1">
          <mxGeometry x="3.8" y="2.82" width="122.01" height="49.38" as="geometry" />
        </mxCell>
        <mxCell id="12" style="vsdxID=13;fillColor=none;gradientColor=none;strokeOpacity=0;spacingTop=-3;spacingBottom=-3;spacingLeft=-3;spacingRight=-3;points=[[0,0.5,0],[1,0.5,0],[0.5,1,0],[0.5,0,0]];labelBackgroundColor=none;rounded=1;strokeColor=none;html=1;whiteSpace=wrap;" parent="BMRI44_Pc0IovrskJfD4-86" vertex="1">
          <mxGeometry x="565" y="147.00000000000003" width="129" height="56" as="geometry" />
        </mxCell>
        <mxCell id="13" style="vsdxID=14;fillColor=#ffdba9;gradientColor=none;strokeOpacity=0;shape=stencil(vZRdcoMgFIVXw6MMPyrynKYb6AqYSpSpFQdpY7L6otdkpDJ59A3OPXD4kCvip7FVg0aMjN7ZL301tW8Rf0OMmb7VzvgwQvyM+OlinW6c/elrmA8qOBlZFF3DGjq7GVHu88PcNWgEcyoKKMDKb/s7J05rHUo3mAlc8EV4B2/Yag5ZvQyLHOxu9Zf4Efq0SBrtSJ7ClKnJjJmzXnlj+yi+U67RWUjLLp1qotJ41XrYyHR7vs70GxZZYlqm05M8HOdFzCNwlUc8UmIi0ld0BFBIr6J0Gc78CojsPlAlY6DdHVFCjuLZvY5HdpKGYhnD5OEtRzAkfTcHkLxumzBY+hM613QdtPe2/r+fgwT/An7+Aw==);spacingTop=-3;spacingBottom=-3;spacingLeft=-3;spacingRight=-3;points=[[0,0.5,0],[1,0.5,0],[0.5,1,0],[0.5,0,0]];labelBackgroundColor=none;rounded=1;html=1;whiteSpace=wrap;" parent="12" vertex="1">
          <mxGeometry width="129" height="56" as="geometry" />
        </mxCell>
        <mxCell id="14" value="&lt;div style=&quot;font-size: 1px&quot;&gt;&lt;p style=&quot;align:center;margin-left:0;margin-right:0;margin-top:0px;margin-bottom:0px;text-indent:0;valign:middle;direction:ltr;&quot;&gt;&lt;font style=&quot;font-size:21.17px;font-family:Arial;color:#666666;direction:ltr;letter-spacing:0px;line-height:100%;opacity:1&quot;&gt;&lt;b&gt;Salesforce&lt;/b&gt;&lt;/font&gt;&lt;/p&gt;&lt;/div&gt;" style="text;vsdxID=13;fillColor=none;gradientColor=none;strokeOpacity=0;spacingTop=-3;spacingBottom=-3;spacingLeft=-3;spacingRight=-3;points=[[0,0.5,0],[1,0.5,0],[0.5,1,0],[0.5,0,0]];labelBackgroundColor=none;rounded=1;strokeColor=none;html=1;whiteSpace=wrap;verticalAlign=middle;align=center;;html=1;" parent="12" vertex="1">
          <mxGeometry x="3.8" y="2.82" width="122.01" height="49.38" as="geometry" />
        </mxCell>
        <mxCell id="15" style="vsdxID=16;fillColor=none;gradientColor=none;strokeColor=none;spacingTop=-3;spacingBottom=-3;spacingLeft=-3;spacingRight=-3;points=[[0,0.5,0],[1,0.5,0],[0.5,1,0],[0.5,0,0],[-0.4,1,0],[0.4,1,0]];labelBackgroundColor=none;rounded=1;html=1;whiteSpace=wrap;" parent="BMRI44_Pc0IovrskJfD4-86" vertex="1">
          <mxGeometry x="819" y="512" width="18" height="94" as="geometry" />
        </mxCell>
        <mxCell id="16" style="vsdxID=17;fillColor=#ffffff;gradientColor=none;shape=stencil(vVPbcoMgFPwaHmW4GJTnNPmBfAFTiTK14iBtbL++6KEdiUzemjfO2YVlDyzix6lTo0aMTN7ZN30zje8Qf0GMmaHTzviwQvyE+PFqnW6d/RgaqEcVmIysHd3AHrqwGVHu9WK+NfQI5rQ6AAA73+3nojhHHKAvqMq1OgMxnLMoRCIVuAaui2SOuYBOpAQxQpPz4ulzoWYzFc565Y0dEqxXrtVF0CquvWoTaLppPW7adHu73gwbG5XEUmaks1bCPWuZeikxrRMvlOQm8wQn98JSPH4TsXuUKjGyn8yfwv+b2f+IX/G8H45JmfphWNDET3Y6T7DyIChhscYRgmr6HtK8xe/jG1oQfX76AQ==);strokeColor=#666666;spacingTop=-3;spacingBottom=-3;spacingLeft=-3;spacingRight=-3;points=[[0,0.5,0],[1,0.5,0],[0.5,1,0],[0.5,0,0]];labelBackgroundColor=none;rounded=1;html=1;whiteSpace=wrap;" parent="15" vertex="1">
          <mxGeometry width="18" height="94" as="geometry" />
        </mxCell>
        <mxCell id="17" style="vsdxID=19;fillColor=none;gradientColor=none;fillOpacity=0;strokeOpacity=0;spacingTop=-3;spacingBottom=-3;spacingLeft=-3;spacingRight=-3;points=[[0,0.5,0],[1,0.5,0],[0.5,1,0],[0.5,0,0]];labelBackgroundColor=none;rounded=1;strokeColor=none;html=1;whiteSpace=wrap;" parent="BMRI44_Pc0IovrskJfD4-86" vertex="1">
          <mxGeometry x="421" y="352" width="75" height="29" as="geometry" />
        </mxCell>
        <mxCell id="18" style="vsdxID=20;fillColor=#ffffff;gradientColor=none;fillOpacity=0;strokeOpacity=0;shape=stencil(vVTLcoMwDPwaH9H4ERd8TpMfyBd4igOeUswYtyH9+hpEMpik6am5Ge1K65UsiNj2te4M4bQP3r2bky1DTcQr4dy2tfE2xBMROyK2R+dN5d1nW+J3pyOT0yliSsxhI5tT7d8O9ttgjIJguUQAMz/c16g4zDhC57kCh1xMkT2SY61RZSZvgCPdX/gUXgoMzRQJlCUlZ4Eh04PtM++CDta1CdZoX5ksSmXHRlcJ1J+M6RZhtrxcY9uFE7UBVdyRvutEAmMrK/yaPlzM/dacZ7hRoFQiX+RxlI9mw9TtcGTiaGxRWvTq8f8d3byMqA30wWsTIGTqqADJE0N03SGeP8vOH4sTD9OK4vLapsENX+LrlY4h/B2I3Q8=);spacingTop=-3;spacingBottom=-3;spacingLeft=-3;spacingRight=-3;points=[[0,0.5,0],[1,0.5,0],[0.5,1,0],[0.5,0,0]];labelBackgroundColor=none;rounded=1;html=1;whiteSpace=wrap;" parent="17" vertex="1">
          <mxGeometry width="75" height="29" as="geometry" />
        </mxCell>
        <mxCell id="19" value="&lt;div style=&quot;font-size: 1px&quot;&gt;&lt;p style=&quot;align:left;margin-left:0;margin-right:0;margin-top:0px;margin-bottom:0px;text-indent:0;valign:middle;direction:ltr;&quot;&gt;&lt;font style=&quot;font-size:14.11px;font-family:Arial;color:#de5f85;direction:ltr;letter-spacing:0px;line-height:100%;opacity:1&quot;&gt;&lt;b&gt;HTTP POST req.&lt;/b&gt;&lt;/font&gt;&lt;/p&gt;&lt;/div&gt;" style="text;vsdxID=19;fillColor=none;gradientColor=none;fillOpacity=0;strokeOpacity=0;spacingTop=-3;spacingBottom=-3;spacingLeft=-3;spacingRight=-3;points=[[0,0.5,0],[1,0.5,0],[0.5,1,0],[0.5,0,0]];labelBackgroundColor=none;rounded=1;strokeColor=none;html=1;whiteSpace=wrap;verticalAlign=middle;align=left;;html=1;" parent="17" vertex="1">
          <mxGeometry y="-0.86" width="75.97" height="29.91" as="geometry" />
        </mxCell>
        <mxCell id="20" style="vsdxID=21;fillColor=none;gradientColor=none;fillOpacity=0;strokeOpacity=0;spacingTop=-3;spacingBottom=-3;spacingLeft=-3;spacingRight=-3;points=[[0,0.5,0],[1,0.5,0],[0.5,1,0],[0.5,0,0]];labelBackgroundColor=none;rounded=1;strokeColor=none;html=1;whiteSpace=wrap;" parent="BMRI44_Pc0IovrskJfD4-86" vertex="1">
          <mxGeometry x="489" y="429" width="129" height="18" as="geometry" />
        </mxCell>
        <mxCell id="21" style="vsdxID=22;fillColor=#ffffff;gradientColor=none;fillOpacity=0;strokeOpacity=0;shape=stencil(vVTbcoMgFPwaHmW4eIHnNP2BfgFTiTKl4iBtbL++4HEyYpL2qXmD3T2se+CI+GHq1agRI1Pw7k2fTRt6xJ8QY2botTchrhA/In44Oa877z6GFvajikpGFkS3UEOTmhHlX1/MtwaMYE6bCgiofHefyXFeeaC+YBflpFyQZxDHs5LLKma4rEHv1wJaY8EBumgkz85cHeZCzWYqvAsqGDdknFW+00X0Kk5WdRk1nbUeNzDdfp01wyaKbDCpbljfjMJxKfMoERIsi0LJve48Io3EUmT2TUR+u5tmdzUClyLLkxrUZEdeEv5/nqt3kQJW9/NQLOkuEMckf2vkqj/1o+L8MTdxsUwozK6xFgZ8y+8nOkLwN+DHHw==);spacingTop=-3;spacingBottom=-3;spacingLeft=-3;spacingRight=-3;points=[[0,0.5,0],[1,0.5,0],[0.5,1,0],[0.5,0,0]];labelBackgroundColor=none;rounded=1;html=1;whiteSpace=wrap;" parent="20" vertex="1">
          <mxGeometry width="129" height="18" as="geometry" />
        </mxCell>
        <mxCell id="22" value="&lt;div style=&quot;font-size: 1px&quot;&gt;&lt;p style=&quot;align:right;margin-left:0;margin-right:0;margin-top:0px;margin-bottom:0px;text-indent:0;valign:middle;direction:ltr;&quot;&gt;&lt;font style=&quot;font-size:14.11px;font-family:Arial;color:#de5f85;direction:ltr;letter-spacing:0px;line-height:100%;opacity:1&quot;&gt;&lt;b&gt;HTTP POST resp.&lt;/b&gt;&lt;/font&gt;&lt;/p&gt;&lt;/div&gt;" style="text;vsdxID=21;fillColor=none;gradientColor=none;fillOpacity=0;strokeOpacity=0;spacingTop=-3;spacingBottom=-3;spacingLeft=-3;spacingRight=-3;points=[[0,0.5,0],[1,0.5,0],[0.5,1,0],[0.5,0,0]];labelBackgroundColor=none;rounded=1;strokeColor=none;html=1;whiteSpace=wrap;verticalAlign=middle;align=right;;html=1;" parent="20" vertex="1">
          <mxGeometry y="-0.95" width="129.61" height="18.99" as="geometry" />
        </mxCell>
        <mxCell id="23" style="vsdxID=23;fillColor=none;gradientColor=none;fillOpacity=0;strokeOpacity=0;spacingTop=-3;spacingBottom=-3;spacingLeft=-3;spacingRight=-3;points=[[0,0.5,0],[1,0.5,0],[0.5,1,0],[0.5,0,0]];labelBackgroundColor=none;rounded=1;strokeColor=none;html=1;whiteSpace=wrap;" parent="BMRI44_Pc0IovrskJfD4-86" vertex="1">
          <mxGeometry x="481" y="361" width="133" height="29" as="geometry" />
        </mxCell>
        <mxCell id="24" style="vsdxID=24;fillColor=#ffffff;gradientColor=none;fillOpacity=0;strokeOpacity=0;shape=stencil(vVTBcoMgEP0ajjKwRNFzmvxAv4CpRJlacZA2tl9fdE1GaNKemhu+fbuPt8tKxH5s1aAJsNE7+6rPpvYtEU8EwPStdsaHExEHIvYn63Tj7Htf4/egAhPYgugac/jMBqbcy7P50ogxKrjMMYCZb/ZjVpzWOIY+1wpApViQI5JDrVllJQMVFfLdJYHRokToyinzqOaqMGVqMmPmrFfe2D6Kdco1Ogta2alTTRQaz1oPG5hvb9eZfmOlkpTLG9I3rYjQl8TKjsrYCmf3uvMAN0GcMoj0S3m59J3pFIkjTotd5GhuUTydq8f/d/TjZSwWf3lunFbJjEqaQ2SIpQ0C+Sg7f2xOOCw7ittrug5XfBtPdzpA+D8Qh28=);spacingTop=-3;spacingBottom=-3;spacingLeft=-3;spacingRight=-3;points=[[0,0.5,0],[1,0.5,0],[0.5,1,0],[0.5,0,0]];labelBackgroundColor=none;rounded=1;html=1;whiteSpace=wrap;" parent="23" vertex="1">
          <mxGeometry width="133" height="29" as="geometry" />
        </mxCell>
        <mxCell id="25" value="&lt;div style=&quot;font-size: 1px&quot;&gt;&lt;p style=&quot;align:center;margin-left:0;margin-right:0;margin-top:0px;margin-bottom:0px;text-indent:0;valign:middle;direction:ltr;&quot;&gt;&lt;font style=&quot;font-size:9.88px;font-family:Arial;color:#0c7cba;direction:ltr;letter-spacing:0px;line-height:100%;opacity:1&quot;&gt;&lt;b&gt;Access token&lt;/b&gt;&lt;/font&gt;&lt;font style=&quot;font-size:9.88px;font-family:Arial;color:#666666;direction:ltr;letter-spacing:0px;line-height:100%;opacity:1&quot;&gt;&lt;b&gt;&lt;br/&gt;&lt;/b&gt;&lt;/font&gt;&lt;/p&gt;&lt;p style=&quot;align:right;margin-left:0;margin-right:0;margin-top:0px;margin-bottom:0px;text-indent:0;valign:middle;direction:ltr;&quot;&gt;&lt;font style=&quot;font-size:9.88px;font-family:Arial;color:#0c7cba;direction:ltr;letter-spacing:0px;line-height:100%;opacity:1&quot;&gt;&lt;b&gt;Actor &lt;/b&gt;&lt;/font&gt;&lt;/p&gt;&lt;/div&gt;" style="text;vsdxID=23;fillColor=none;gradientColor=none;fillOpacity=0;strokeOpacity=0;spacingTop=-3;spacingBottom=-3;spacingLeft=-3;spacingRight=-3;points=[[0,0.5,0],[1,0.5,0],[0.5,1,0],[0.5,0,0]];labelBackgroundColor=none;rounded=1;strokeColor=none;html=1;whiteSpace=wrap;verticalAlign=middle;align=center;;html=1;" parent="23" vertex="1">
          <mxGeometry y="-0.86" width="133.89" height="29.91" as="geometry" />
        </mxCell>
        <mxCell id="26" style="vsdxID=25;fillColor=none;gradientColor=none;fillOpacity=0;strokeOpacity=0;spacingTop=-3;spacingBottom=-3;spacingLeft=-3;spacingRight=-3;points=[[0,0.5,0],[1,0.5,0],[0.5,1,0],[0.5,0,0]];labelBackgroundColor=none;rounded=1;strokeColor=none;html=1;whiteSpace=wrap;" parent="BMRI44_Pc0IovrskJfD4-86" vertex="1">
          <mxGeometry x="433" y="423" width="123" height="29" as="geometry" />
        </mxCell>
        <mxCell id="27" style="vsdxID=26;fillColor=#ffffff;gradientColor=none;fillOpacity=0;strokeOpacity=0;shape=stencil(vVTLcoMwDPwaH9EImec5TX+gX+ApDnhKMWNoQ/v1NYjMYJqmN25mtdJ6JQshT0Ojei0Ih9HZN3011dgI+SSITNdoZ0Z/EvIs5Olina6d/egq/u6VZxIuiK44J57ZhMq9vphvzRiCjPOUA5z5bj9nxWmNc+hrrUCQywV5ZrKvNausZIK0ZL67JSBkBUMrRwIWQc1VYYrUZIbI2VGNxnZBrFWu1pHXii6tqoPQcNW638Dx9nat6TZWygzK5I70XSsSknhnJQHMAisx/tWdA9x4cUAK9IvcD/PRdMpsZ4ng9ig2PZKhKTxsQL+exuLx4XvDnaMCUgoM4b5DlB9l55/V8YdlSXl9Tdvyjm/j+6X2EP8Q5PkH);spacingTop=-3;spacingBottom=-3;spacingLeft=-3;spacingRight=-3;points=[[0,0.5,0],[1,0.5,0],[0.5,1,0],[0.5,0,0]];labelBackgroundColor=none;rounded=1;html=1;whiteSpace=wrap;" parent="26" vertex="1">
          <mxGeometry width="123" height="29" as="geometry" />
        </mxCell>
        <mxCell id="28" value="&lt;div style=&quot;font-size: 1px&quot;&gt;&lt;p style=&quot;align:left;margin-left:0;margin-right:0;margin-top:0px;margin-bottom:0px;text-indent:0;valign:middle;direction:ltr;&quot;&gt;&lt;font style=&quot;font-size:9.88px;font-family:Arial;color:#0c7cba;direction:ltr;letter-spacing:0px;line-height:100%;opacity:1&quot;&gt;&lt;b&gt;Asset token&lt;/b&gt;&lt;/font&gt;&lt;/p&gt;&lt;/div&gt;" style="text;vsdxID=25;fillColor=none;gradientColor=none;fillOpacity=0;strokeOpacity=0;spacingTop=-3;spacingBottom=-3;spacingLeft=-3;spacingRight=-3;points=[[0,0.5,0],[1,0.5,0],[0.5,1,0],[0.5,0,0]];labelBackgroundColor=none;rounded=1;strokeColor=none;html=1;whiteSpace=wrap;verticalAlign=middle;align=left;;html=1;" parent="26" vertex="1">
          <mxGeometry y="-0.86" width="123.44" height="29.91" as="geometry" />
        </mxCell>
        <mxCell id="32" style="vsdxID=29;fillColor=none;gradientColor=none;fillOpacity=0;strokeOpacity=0;spacingTop=-3;spacingBottom=-3;spacingLeft=-3;spacingRight=-3;points=[[0,0.5,0],[1,0.5,0],[0.5,1,0],[0.5,0,0]];labelBackgroundColor=none;rounded=1;strokeColor=none;html=1;whiteSpace=wrap;" parent="BMRI44_Pc0IovrskJfD4-86" vertex="1">
          <mxGeometry width="218" height="56" as="geometry" />
        </mxCell>
        <mxCell id="33" style="vsdxID=30;fillColor=#000000;gradientColor=none;fillOpacity=0;strokeOpacity=0;shape=stencil(vVTLcoQgEPwajlLArEs4bzY/kC+gIqtUjFhIso+vDzqaEnVz9AbTDT09zEDg1FW6NUSwLnj3aa62CBWBVyKEbSrjbYgrAmcCp4vzpvTuuylw3+rIFGyImALP8J4tmPYf7/ZhMMYocJkjgCe/3E+veBtxhO64kzSHIfCG3HhVLzJyOT0KpPuRf6ST6B9FiuRGRtXEyPTNdpl3QQfrmkS+1r40WVTLLrUuE6i7GtPOwnyeX22bmRclKeTb6pt+BOUq9fNCD4kdpSiT2xXaw89KXcGY4LP3kcv3AZUaWpWIM7aXn1VzTNpP3PBFtx1iLydu2HZxdrDy/9jExTCfOLm2rnG85/hynmMI/wI4/wI=);spacingTop=-3;spacingBottom=-3;spacingLeft=-3;spacingRight=-3;points=[[0,0.5,0],[1,0.5,0],[0.5,1,0],[0.5,0,0]];labelBackgroundColor=none;rounded=1;html=1;whiteSpace=wrap;" parent="32" vertex="1">
          <mxGeometry width="218" height="56" as="geometry" />
        </mxCell>
        <mxCell id="34" value="&lt;div style=&quot;font-size: 1px&quot;&gt;&lt;p style=&quot;align:center;margin-left:0;margin-right:0;margin-top:0px;margin-bottom:0px;text-indent:0;valign:middle;direction:ltr;&quot;&gt;&lt;font style=&quot;font-size:23.99px;font-family:Arial;color:#999999;direction:ltr;letter-spacing:0px;line-height:100%;opacity:1&quot;&gt;&lt;i&gt;&lt;b&gt;OAuth 2.0 Flow&lt;/b&gt;&lt;/i&gt;&lt;/font&gt;&lt;/p&gt;&lt;/div&gt;" style="text;vsdxID=29;fillColor=none;gradientColor=none;fillOpacity=0;strokeOpacity=0;spacingTop=-3;spacingBottom=-3;spacingLeft=-3;spacingRight=-3;points=[[0,0.5,0],[1,0.5,0],[0.5,1,0],[0.5,0,0]];labelBackgroundColor=none;rounded=1;strokeColor=none;html=1;whiteSpace=wrap;verticalAlign=middle;align=center;;html=1;" parent="32" vertex="1">
          <mxGeometry y="-0.97" width="218.39" height="56.97" as="geometry" />
        </mxCell>
        <mxCell id="35" style="vsdxID=31;fillColor=none;gradientColor=none;fillOpacity=0;strokeOpacity=0;spacingTop=-3;spacingBottom=-3;spacingLeft=-3;spacingRight=-3;points=[[0,0.5,0],[1,0.5,0],[0.5,1,0],[0.5,0,0]];labelBackgroundColor=none;rounded=1;strokeColor=none;html=1;whiteSpace=wrap;" parent="BMRI44_Pc0IovrskJfD4-86" vertex="1">
          <mxGeometry x="274" y="285" width="122" height="46" as="geometry" />
        </mxCell>
        <mxCell id="36" style="vsdxID=32;fillColor=#ffffff;gradientColor=none;fillOpacity=0;strokeOpacity=0;shape=stencil(vZTdVsMgDMefhsvm8LFucD23F/AJOJa1HLH0UHTVp5cuqMXN3rk7SP4k+QUCEfux04MhnI4x+Gdztk3siHggnNu+M8HGtCLiQMT+5INpg3/tG9wPOik5vVhMg2fYrOZUh6dH+2HQRkGwXY0OPPni3+aMU/aj6x13Ehhqj6hNoeYkWcuhVigPWb8FuUFLlgigqoiY40+VnuxYBR91tL4vfE6H1lQpVXVyui1c49mYYWFmy+Kc7RcgKtVyK/VNEgF8U5JIqEsSRv9ozT1YFChZZFcMJFvj+Sruh0cUOKk9ihUhvwH/n+fqVcyA27WHxmSJU8OuvB561Z673c76yKTFZTZxaq1zONpL/+9ZTib8B8ThEw==);spacingTop=-3;spacingBottom=-3;spacingLeft=-3;spacingRight=-3;points=[[0,0.5,0],[1,0.5,0],[0.5,1,0],[0.5,0,0]];labelBackgroundColor=none;rounded=1;html=1;whiteSpace=wrap;" parent="35" vertex="1">
          <mxGeometry width="122" height="46" as="geometry" />
        </mxCell>
        <mxCell id="37" value="&lt;div style=&quot;font-size: 1px&quot;&gt;&lt;p style=&quot;align:right;margin-left:0;margin-right:0;margin-top:0px;margin-bottom:0px;text-indent:0;valign:middle;direction:ltr;&quot;&gt;&lt;font style=&quot;font-size:15.52px;font-family:Arial;color:#666666;direction:ltr;letter-spacing:0px;line-height:100%;opacity:1&quot;&gt;Create actor token (if not passed explicitly by device)&lt;/font&gt;&lt;/p&gt;&lt;/div&gt;" style="text;vsdxID=31;fillColor=none;gradientColor=none;fillOpacity=0;strokeOpacity=0;spacingTop=-3;spacingBottom=-3;spacingLeft=-3;spacingRight=-3;points=[[0,0.5,0],[1,0.5,0],[0.5,1,0],[0.5,0,0]];labelBackgroundColor=none;rounded=1;strokeColor=none;html=1;whiteSpace=wrap;verticalAlign=middle;align=right;;html=1;" parent="35" vertex="1">
          <mxGeometry y="-0.64" width="123.44" height="47" as="geometry" />
        </mxCell>
        <mxCell id="38" style="vsdxID=33;fillColor=none;gradientColor=none;fillOpacity=0;strokeOpacity=0;spacingTop=-3;spacingBottom=-3;spacingLeft=-3;spacingRight=-3;points=[[0,0.5,0],[1,0.5,0],[0.5,1,0],[0.5,0,0]];labelBackgroundColor=none;rounded=1;strokeColor=none;html=1;whiteSpace=wrap;" parent="BMRI44_Pc0IovrskJfD4-86" vertex="1">
          <mxGeometry x="738" y="533" width="75" height="28" as="geometry" />
        </mxCell>
        <mxCell id="39" style="vsdxID=34;fillColor=#ffffff;gradientColor=none;fillOpacity=0;strokeOpacity=0;shape=stencil(vZRLcoQgEIZPw1KKlySsJ5ML5ARUZJQKEQtJ5nH6oE2lxHGSnTvs/rt/vi5axA9jpweDGBlj8B/mbJvYIf6CGLN9Z4KN6YT4EfHDyQfTBv/VN/A96KRkZI6YBmropGZEh/c3ezMQI5jTpxoSUPnpvyfHS85D6po7UMzZHHkFceo1uWQxxyK3CrlAYQZ68iuRqmyJhcyKSl/sWAUfdbS+L/ydDq2pklt1crotUuPZmGERpsv7OdsvYFS6vtx23+QRWK54KMOiBFI1JuLBkPZASvZ1Ya8IpuIvJr5CSjN4LpESQNmTErIX0P0Dyd6bNOzuxUlcy4KGPJjODiz/LE86zGsKC2ydgy1f5tdrnULwS+DHHw==);spacingTop=-3;spacingBottom=-3;spacingLeft=-3;spacingRight=-3;points=[[0,0.5,0],[1,0.5,0],[0.5,1,0],[0.5,0,0]];labelBackgroundColor=none;rounded=1;html=1;whiteSpace=wrap;" parent="38" vertex="1">
          <mxGeometry width="75" height="28" as="geometry" />
        </mxCell>
        <mxCell id="40" value="&lt;div style=&quot;font-size: 1px&quot;&gt;&lt;p style=&quot;align:right;margin-left:0;margin-right:0;margin-top:0px;margin-bottom:0px;text-indent:0;valign:middle;direction:ltr;&quot;&gt;&lt;font style=&quot;font-size:9.88px;font-family:Arial;color:#0c7cba;direction:ltr;letter-spacing:0px;line-height:100%;opacity:1&quot;&gt;&lt;b&gt;Asset token&lt;/b&gt;&lt;/font&gt;&lt;/p&gt;&lt;/div&gt;" style="text;vsdxID=33;fillColor=none;gradientColor=none;fillOpacity=0;strokeOpacity=0;spacingTop=-3;spacingBottom=-3;spacingLeft=-3;spacingRight=-3;points=[[0,0.5,0],[1,0.5,0],[0.5,1,0],[0.5,0,0]];labelBackgroundColor=none;rounded=1;strokeColor=none;html=1;whiteSpace=wrap;verticalAlign=middle;align=right;;html=1;" parent="38" vertex="1">
          <mxGeometry y="-0.46" width="75.97" height="28.49" as="geometry" />
        </mxCell>
        <mxCell id="41" style="vsdxID=35;fillColor=none;gradientColor=none;strokeOpacity=0;spacingTop=-3;spacingBottom=-3;spacingLeft=-3;spacingRight=-3;points=[[0,0.5,0],[1,0.5,0],[0.5,1,0],[0.5,0,0]];labelBackgroundColor=none;rounded=1;strokeColor=none;html=1;whiteSpace=wrap;" parent="BMRI44_Pc0IovrskJfD4-86" vertex="1">
          <mxGeometry x="764" y="147.00000000000003" width="129" height="56" as="geometry" />
        </mxCell>
        <mxCell id="42" style="vsdxID=36;fillColor=#ffbbb1;gradientColor=none;strokeOpacity=0;shape=stencil(vZRdcoMgFIVXw6MMPyrynKYb6AqYSpSpFQdpY7L6otdkpDJ59A3OPXD4kCvip7FVg0aMjN7ZL301tW8Rf0OMmb7VzvgwQvyM+OlinW6c/elrmA8qOBlZFF3DGjq7GVHu88PcNWgEcyoKKMDKb/s7J05rHUo3mAlc8EV4B2/Yag5ZvQyLHOxu9Zf4Efq0SBrtSJ7ClKnJjJmzXnlj+yi+U67RWUjLLp1qotJ41XrYyHR7vs70GxZZYlqm05M8HOdFzCNwlUc8UmIi0ld0BFBIr6J0Gc78CojsPlAlY6DdHVFCjuLZvY5HdpKGYhnD5OEtRzAkfTcHkLxumzBY+hM613QdtPe2/r+fgwT/An7+Aw==);spacingTop=-3;spacingBottom=-3;spacingLeft=-3;spacingRight=-3;points=[[0,0.5,0],[1,0.5,0],[0.5,1,0],[0.5,0,0]];labelBackgroundColor=none;rounded=1;html=1;whiteSpace=wrap;" parent="41" vertex="1">
          <mxGeometry width="129" height="56" as="geometry" />
        </mxCell>
        <mxCell id="43" value="&lt;div style=&quot;font-size: 1px&quot;&gt;&lt;p style=&quot;align:center;margin-left:0;margin-right:0;margin-top:0px;margin-bottom:0px;text-indent:0;valign:middle;direction:ltr;&quot;&gt;&lt;font style=&quot;font-size:21.17px;font-family:Arial;color:#666666;direction:ltr;letter-spacing:0px;line-height:100%;opacity:1&quot;&gt;&lt;b&gt;Device Backend&lt;/b&gt;&lt;/font&gt;&lt;/p&gt;&lt;/div&gt;" style="text;vsdxID=35;fillColor=none;gradientColor=none;strokeOpacity=0;spacingTop=-3;spacingBottom=-3;spacingLeft=-3;spacingRight=-3;points=[[0,0.5,0],[1,0.5,0],[0.5,1,0],[0.5,0,0]];labelBackgroundColor=none;rounded=1;strokeColor=none;html=1;whiteSpace=wrap;verticalAlign=middle;align=center;;html=1;" parent="41" vertex="1">
          <mxGeometry x="3.8" y="2.82" width="122.01" height="49.38" as="geometry" />
        </mxCell>
        <mxCell id="44" style="vsdxID=37;fillColor=none;gradientColor=none;strokeColor=none;spacingTop=-3;spacingBottom=-3;spacingLeft=-3;spacingRight=-3;points=[[0,0.5,0],[1,0.5,0],[0.5,1,0],[0.5,0,0],[0.13,1,0]];labelBackgroundColor=none;rounded=1;html=1;whiteSpace=wrap;" parent="BMRI44_Pc0IovrskJfD4-86" vertex="1">
          <mxGeometry x="620" y="241.00000000000003" width="18" height="37" as="geometry" />
        </mxCell>
        <mxCell id="45" style="vsdxID=38;fillColor=#ffffff;gradientColor=none;shape=stencil(vZTdUoQwDIWfppdk0nb56fW6+wI+QUe60BEpU9BFn95CcKSCesdde5L05MsQmDz3te4ME9gP3j2buy2HmskHJoRta+PtEE5MXpg835w3lXevbUn3TodMgbNiSqrhU7ZA7Z8e7YchDUHyPKUAVb64t8lxXOIUel9eQCjkrFwpObw1uSzJXIHMqMAvFQqygpTvnCJ6E0EtjY2JHm2feDfowbo2aqDRvjJJsEtuja6iUH83plvJfN1gY9sVTa5AnPbdd4EEh5zHQNMIsohIKUD1y5gOYNraK4Q/mHgOqYiZCshjpO2cOOJRQJsv5Mt7H0eAimkyOKURDe5P5wCUf7YnHOY9pQ22TUNrvo7/3Osg0T9BXj4B);strokeColor=#666666;spacingTop=-3;spacingBottom=-3;spacingLeft=-3;spacingRight=-3;points=[[0,0.5,0],[1,0.5,0],[0.5,1,0],[0.5,0,0]];labelBackgroundColor=none;rounded=1;html=1;whiteSpace=wrap;" parent="44" vertex="1">
          <mxGeometry width="18" height="37" as="geometry" />
        </mxCell>
        <mxCell id="46" style="vsdxID=40;fillColor=none;gradientColor=none;fillOpacity=0;strokeOpacity=0;spacingTop=-3;spacingBottom=-3;spacingLeft=-3;spacingRight=-3;points=[[0,0.5,0],[1,0.5,0],[0.5,1,0],[0.5,0,0]];labelBackgroundColor=none;rounded=1;strokeColor=none;html=1;whiteSpace=wrap;" parent="BMRI44_Pc0IovrskJfD4-86" vertex="1">
          <mxGeometry x="643" y="246.00000000000003" width="135" height="37" as="geometry" />
        </mxCell>
        <mxCell id="47" style="vsdxID=41;fillColor=#ffffff;gradientColor=none;fillOpacity=0;strokeOpacity=0;shape=stencil(vZTdcoMgEIWfhksZfkwC12nyAnkCphJlSsVB2pg+fTFLrFjbXjV3uLucw7ewIr7vG9VpxEgfvHvRF1OFBvEnxJhpG+1NiCvED4jvz87r2ru3toLvTsVKRm4RXcEeOlYzovzzyXxoiBHM6W4DCdj56t5HxyHlIXVNCgQTUDlCcdQaXVIxwzxJ+bRB4BICU4XIBJP8UKjB9IV3QQXj2ixnla91EY2Ks1V1luovWnezcHY0a9oZh9zhO39mvcrBcSlzDspwuc1IKPmpNQ+gWZoLiaX87V5KsbwXsclwvvdn8vh/nOWruFuvwlAsaA6znfBWH+1Xcx6A8se8xMVtMmFmjbUw2PP8cpJjCP4C/PAJ);spacingTop=-3;spacingBottom=-3;spacingLeft=-3;spacingRight=-3;points=[[0,0.5,0],[1,0.5,0],[0.5,1,0],[0.5,0,0]];labelBackgroundColor=none;rounded=1;html=1;whiteSpace=wrap;" parent="46" vertex="1">
          <mxGeometry width="135" height="37" as="geometry" />
        </mxCell>
        <mxCell id="48" value="&lt;div style=&quot;font-size: 1px&quot;&gt;&lt;p style=&quot;align:left;margin-left:0;margin-right:0;margin-top:0px;margin-bottom:0px;text-indent:0;valign:middle;direction:ltr;&quot;&gt;&lt;font style=&quot;font-size:15.52px;font-family:Arial;color:#666666;direction:ltr;letter-spacing:0px;line-height:100%;opacity:1&quot;&gt;Return access token via any OAuith flow&lt;/font&gt;&lt;/p&gt;&lt;/div&gt;" style="text;vsdxID=40;fillColor=none;gradientColor=none;fillOpacity=0;strokeOpacity=0;spacingTop=-3;spacingBottom=-3;spacingLeft=-3;spacingRight=-3;points=[[0,0.5,0],[1,0.5,0],[0.5,1,0],[0.5,0,0]];labelBackgroundColor=none;rounded=1;strokeColor=none;html=1;whiteSpace=wrap;verticalAlign=middle;align=left;;html=1;" parent="46" vertex="1">
          <mxGeometry y="-0.98" width="136.26" height="37.98" as="geometry" />
        </mxCell>
        <mxCell id="49" style="vsdxID=44;fillColor=none;gradientColor=none;strokeColor=none;spacingTop=-3;spacingBottom=-3;spacingLeft=-3;spacingRight=-3;points=[[0,0.5,0],[1,0.5,0],[0.5,1,0],[0.5,0,0],[-10.33,1,0]];labelBackgroundColor=none;rounded=1;html=1;whiteSpace=wrap;" parent="BMRI44_Pc0IovrskJfD4-86" vertex="1">
          <mxGeometry x="189" y="241.00000000000003" width="18" height="43" as="geometry" />
        </mxCell>
        <mxCell id="50" style="vsdxID=45;fillColor=#ffffff;gradientColor=none;shape=stencil(vVTBcoMgEP0ajjLATlTOafoD/QImEmVKxUHamH59Mct0RFNvzQ32PXj7dlkIHMdODZoINgbv3vXVNKEj8EKEMH2nvQlxReBE4HhxXrfeffYN7gcVmYLdI7rBM3xmC6b8+c18a4wxCrw6IIAnP9zXrDglHKEb7mpaIvcVufGqWSRxeUlrpPvEr6goMZIoUY/x7MokMBVqMmPhXVDBuD7DrPKtLqJWcbGqzaDxqvWwCPNldtb0CyeVpFI+kH5oJeZZy9yLpAwyL5z9UZwnmFlrS04BdjtTrexsWrOtz6/I//vZvgsZ06l3HAHluaEDLXND2wo9rT37UxMX9/HEwTXW4nQv8fU4xxB+BXD6AQ==);strokeColor=#666666;spacingTop=-3;spacingBottom=-3;spacingLeft=-3;spacingRight=-3;points=[[0,0.5,0],[1,0.5,0],[0.5,1,0],[0.5,0,0]];labelBackgroundColor=none;rounded=1;html=1;whiteSpace=wrap;" parent="49" vertex="1">
          <mxGeometry width="18" height="43" as="geometry" />
        </mxCell>
        <mxCell id="51" style="vsdxID=46;fillColor=none;gradientColor=none;strokeOpacity=0;spacingTop=-3;spacingBottom=-3;spacingLeft=-3;spacingRight=-3;points=[[0,0.5,0],[1,0.5,0],[0.5,1,0],[0.5,0,0]];labelBackgroundColor=none;rounded=1;strokeColor=none;html=1;whiteSpace=wrap;" parent="BMRI44_Pc0IovrskJfD4-86" vertex="1">
          <mxGeometry x="133" y="147.00000000000003" width="129" height="56" as="geometry" />
        </mxCell>
        <mxCell id="52" style="vsdxID=47;fillColor=#d1bcd2;gradientColor=none;strokeOpacity=0;shape=stencil(vZRdcoMgFIVXw6MMPyrynKYb6AqYSpSpFQdpY7L6otdkpDJ59A3OPXD4kCvip7FVg0aMjN7ZL301tW8Rf0OMmb7VzvgwQvyM+OlinW6c/elrmA8qOBlZFF3DGjq7GVHu88PcNWgEcyoKKMDKb/s7J05rHUo3mAlc8EV4B2/Yag5ZvQyLHOxu9Zf4Efq0SBrtSJ7ClKnJjJmzXnlj+yi+U67RWUjLLp1qotJ41XrYyHR7vs70GxZZYlqm05M8HOdFzCNwlUc8UmIi0ld0BFBIr6J0Gc78CojsPlAlY6DdHVFCjuLZvY5HdpKGYhnD5OEtRzAkfTcHkLxumzBY+hM613QdtPe2/r+fgwT/An7+Aw==);spacingTop=-3;spacingBottom=-3;spacingLeft=-3;spacingRight=-3;points=[[0,0.5,0],[1,0.5,0],[0.5,1,0],[0.5,0,0]];labelBackgroundColor=none;rounded=1;html=1;whiteSpace=wrap;" parent="51" vertex="1">
          <mxGeometry width="129" height="56" as="geometry" />
        </mxCell>
        <mxCell id="53" value="&lt;div style=&quot;font-size: 1px&quot;&gt;&lt;p style=&quot;align:center;margin-left:0;margin-right:0;margin-top:0px;margin-bottom:0px;text-indent:0;valign:middle;direction:ltr;&quot;&gt;&lt;font style=&quot;font-size:21.17px;font-family:Arial;color:#666666;direction:ltr;letter-spacing:0px;line-height:100%;opacity:1&quot;&gt;&lt;b&gt;Device&lt;/b&gt;&lt;/font&gt;&lt;/p&gt;&lt;/div&gt;" style="text;vsdxID=46;fillColor=none;gradientColor=none;strokeOpacity=0;spacingTop=-3;spacingBottom=-3;spacingLeft=-3;spacingRight=-3;points=[[0,0.5,0],[1,0.5,0],[0.5,1,0],[0.5,0,0]];labelBackgroundColor=none;rounded=1;strokeColor=none;html=1;whiteSpace=wrap;verticalAlign=middle;align=center;;html=1;" parent="51" vertex="1">
          <mxGeometry x="3.8" y="2.82" width="122.01" height="49.38" as="geometry" />
        </mxCell>
        <mxCell id="54" style="vsdxID=49;fillColor=none;gradientColor=none;strokeColor=none;spacingTop=-3;spacingBottom=-3;spacingLeft=-3;spacingRight=-3;points=[[0,0.5,0],[1,0.5,0],[0.5,1,0],[0.5,0,0],[32.58,1,0],[-32.58,1,0]];labelBackgroundColor=none;rounded=1;html=1;whiteSpace=wrap;" parent="BMRI44_Pc0IovrskJfD4-86" vertex="1">
          <mxGeometry x="189" y="512" width="18" height="94" as="geometry" />
        </mxCell>
        <mxCell id="55" style="vsdxID=50;fillColor=#ffffff;gradientColor=none;shape=stencil(vVPbcoMgFPwaHmW4GJTnNPmBfAFTiTK14iBtbL++6KEdiUzemjfO2YVlDyzix6lTo0aMTN7ZN30zje8Qf0GMmaHTzviwQvyE+PFqnW6d/RgaqEcVmIysHd3AHrqwGVHu9WK+NfQI5rQ6AAA73+3nojhHHKAvqMq1OgMxnLMoRCIVuAaui2SOuYBOpAQxQpPz4ulzoWYzFc565Y0dEqxXrtVF0CquvWoTaLppPW7adHu73gwbG5XEUmaks1bCPWuZeikxrRMvlOQm8wQn98JSPH4TsXuUKjGyn8yfwv+b2f+IX/G8H45JmfphWNDET3Y6T7DyIChhscYRgmr6HtK8xe/jG1oQfX76AQ==);strokeColor=#666666;spacingTop=-3;spacingBottom=-3;spacingLeft=-3;spacingRight=-3;points=[[0,0.5,0],[1,0.5,0],[0.5,1,0],[0.5,0,0]];labelBackgroundColor=none;rounded=1;html=1;whiteSpace=wrap;" parent="54" vertex="1">
          <mxGeometry width="18" height="94" as="geometry" />
        </mxCell>
        <mxCell id="56" style="vsdxID=51;fillColor=none;gradientColor=none;strokeColor=none;spacingTop=-3;spacingBottom=-3;spacingLeft=-3;spacingRight=-3;points=[[0,0.5,0],[1,0.5,0],[0.5,1,0],[0.5,0,0],[-10.33,1,0]];labelBackgroundColor=none;rounded=1;html=1;whiteSpace=wrap;" parent="BMRI44_Pc0IovrskJfD4-86" vertex="1">
          <mxGeometry x="189" y="422" width="18" height="37" as="geometry" />
        </mxCell>
        <mxCell id="57" style="vsdxID=52;fillColor=#ffffff;gradientColor=none;shape=stencil(vZTdUoQwDIWfppdk0nb56fW6+wI+QUe60BEpU9BFn95CcKSCesdde5L05MsQmDz3te4ME9gP3j2buy2HmskHJoRta+PtEE5MXpg835w3lXevbUn3TodMgbNiSqrhU7ZA7Z8e7YchDUHyPKUAVb64t8lxXOIUel9eQCjkrFwpObw1uSzJXIHMqMAvFQqygpTvnCJ6E0EtjY2JHm2feDfowbo2aqDRvjJJsEtuja6iUH83plvJfN1gY9sVTa5AnPbdd4EEh5zHQNMIsohIKUD1y5gOYNraK4Q/mHgOqYiZCshjpO2cOOJRQJsv5Mt7H0eAimkyOKURDe5P5wCUf7YnHOY9pQ22TUNrvo7/3Osg0T9BXj4B);strokeColor=#666666;spacingTop=-3;spacingBottom=-3;spacingLeft=-3;spacingRight=-3;points=[[0,0.5,0],[1,0.5,0],[0.5,1,0],[0.5,0,0]];labelBackgroundColor=none;rounded=1;html=1;whiteSpace=wrap;" parent="56" vertex="1">
          <mxGeometry width="18" height="37" as="geometry" />
        </mxCell>
        <mxCell id="58" style="vsdxID=54;fillColor=none;gradientColor=none;fillOpacity=0;strokeOpacity=0;spacingTop=-3;spacingBottom=-3;spacingLeft=-3;spacingRight=-3;points=[[0,0.5,0],[1,0.5,0],[0.5,1,0],[0.5,0,0]];labelBackgroundColor=none;rounded=1;strokeColor=none;html=1;whiteSpace=wrap;" parent="BMRI44_Pc0IovrskJfD4-86" vertex="1">
          <mxGeometry x="133" y="85.00000000000003" width="131" height="66" as="geometry" />
        </mxCell>
        <mxCell id="59" style="vsdxID=55;fillColor=#ffffff;gradientColor=none;fillOpacity=0;strokeOpacity=0;shape=stencil(vVTBcoMgFPwajjLwwEHPafID/QKmEmVKxUHb2H590WczYmJuzQ12F5Z98CDi0De6MwRYPwT/bi62GhoiXgiAbRsT7BBHRByJOJx9MHXwn22F805HJbAZMRWu4ZMamA5vr/bHIMao4CpHAld++K/JcVx4pL5xllMFM3BCbdxqMlm0QCWyLCx6SQsEroqiSDZcth8zPdo+C37Qg/VtwjkdapNFp+zsdJ1Q/cWYbgXz9dmcbVc5SkU53LG+G0TQXKVBFGVpEs52KvOELFvvUlIoHl1LubmWeNgySXNbnavH/8e5eRR/3jtpuNw+MpBJmr3qPCHL43aJg7kvsWOtc9jWa37bxxHCP0AcfwE=);spacingTop=-3;spacingBottom=-3;spacingLeft=-3;spacingRight=-3;points=[[0,0.5,0],[1,0.5,0],[0.5,1,0],[0.5,0,0]];labelBackgroundColor=none;rounded=1;html=1;whiteSpace=wrap;" parent="58" vertex="1">
          <mxGeometry width="131" height="66" as="geometry" />
        </mxCell>
        <mxCell id="60" value="&lt;div style=&quot;font-size: 1px&quot;&gt;&lt;p style=&quot;align:center;margin-left:0;margin-right:0;margin-top:0px;margin-bottom:0px;text-indent:0;valign:middle;direction:ltr;&quot;&gt;&lt;font style=&quot;font-size:15.52px;font-family:Arial;color:#666666;direction:ltr;letter-spacing:0px;line-height:100%;opacity:1&quot;&gt;A connected device, e.g. smart fridge&lt;/font&gt;&lt;/p&gt;&lt;/div&gt;" style="text;vsdxID=54;fillColor=none;gradientColor=none;fillOpacity=0;strokeOpacity=0;spacingTop=-3;spacingBottom=-3;spacingLeft=-3;spacingRight=-3;points=[[0,0.5,0],[1,0.5,0],[0.5,1,0],[0.5,0,0]];labelBackgroundColor=none;rounded=1;strokeColor=none;html=1;whiteSpace=wrap;verticalAlign=middle;align=center;;html=1;" parent="58" vertex="1">
          <mxGeometry y="-0.48" width="131.99" height="66.94" as="geometry" />
        </mxCell>
        <mxCell id="61" style="vsdxID=56;fillColor=none;gradientColor=none;fillOpacity=0;strokeOpacity=0;spacingTop=-3;spacingBottom=-3;spacingLeft=-3;spacingRight=-3;points=[[0,0.5,0],[1,0.5,0],[0.5,1,0],[0.5,0,0]];labelBackgroundColor=none;rounded=1;strokeColor=none;html=1;whiteSpace=wrap;" parent="BMRI44_Pc0IovrskJfD4-86" vertex="1">
          <mxGeometry x="304" y="80.00000000000003" width="213" height="75" as="geometry" />
        </mxCell>
        <mxCell id="62" style="vsdxID=57;fillColor=#ffffff;gradientColor=none;fillOpacity=0;strokeOpacity=0;shape=stencil(vVNBkoMgEHwNRykYTNRzkv1AXkBFotQSsZBN3H19MONa4ro5eoPpZpoeaCIOXS1bRYB13tlP9dClr4k4EgDd1MppH1ZEnIg4XK1TlbNfTYn7VgYmsFdFlXiGD2xg0l3O+kdhjVHBsx0CePJm74NiP+IIfeMOiR9IDH0GhZHIaVog143klAIWJkaWR93G3n0ie90lznrptW0izEhXqSQoJVcjqwjqHkq1szKf383oZmaiyCmIFelVI0B5HhvZU57GTtjaWDYwshQu3j7I7s+DpFnkY5gLRA0ngQ28LL/Dr/Y/bvg+diPoNPe1r1ps9ihvIhIWryBiRLUxmOM5vgxuKGHoxekJ);spacingTop=-3;spacingBottom=-3;spacingLeft=-3;spacingRight=-3;points=[[0,0.5,0],[1,0.5,0],[0.5,1,0],[0.5,0,0]];labelBackgroundColor=none;rounded=1;html=1;whiteSpace=wrap;" parent="61" vertex="1">
          <mxGeometry width="213" height="75" as="geometry" />
        </mxCell>
        <mxCell id="63" value="&lt;div style=&quot;font-size: 1px&quot;&gt;&lt;p style=&quot;align:center;margin-left:0;margin-right:0;margin-top:0px;margin-bottom:0px;text-indent:0;valign:middle;direction:ltr;&quot;&gt;&lt;font style=&quot;font-size:15.52px;font-family:Arial;color:#666666;direction:ltr;letter-spacing:0px;line-height:100%;opacity:1&quot;&gt;Application with capabiltiy to authenticate SF on behalf of device (could be built into or seperate mobile app)&lt;/font&gt;&lt;/p&gt;&lt;/div&gt;" style="text;vsdxID=56;fillColor=none;gradientColor=none;fillOpacity=0;strokeOpacity=0;spacingTop=-3;spacingBottom=-3;spacingLeft=-3;spacingRight=-3;points=[[0,0.5,0],[1,0.5,0],[0.5,1,0],[0.5,0,0]];labelBackgroundColor=none;rounded=1;strokeColor=none;html=1;whiteSpace=wrap;verticalAlign=middle;align=center;;html=1;" parent="61" vertex="1">
          <mxGeometry y="-0.96" width="214.12" height="76.43" as="geometry" />
        </mxCell>
        <mxCell id="64" style="vsdxID=58;fillColor=none;gradientColor=none;fillOpacity=0;strokeOpacity=0;spacingTop=-3;spacingBottom=-3;spacingLeft=-3;spacingRight=-3;points=[[0,0.5,0],[1,0.5,0],[0.5,1,0],[0.5,0,0]];labelBackgroundColor=none;rounded=1;strokeColor=none;html=1;whiteSpace=wrap;" parent="BMRI44_Pc0IovrskJfD4-86" vertex="1">
          <mxGeometry x="752" y="85.00000000000003" width="153" height="66" as="geometry" />
        </mxCell>
        <mxCell id="65" style="vsdxID=59;fillColor=#ffffff;gradientColor=none;fillOpacity=0;strokeOpacity=0;shape=stencil(vZTRcoMgEEW/hkcYZDXE5zT5gXwBU4kyteIgbZJ+fTGLHakmj77h3steD7ISOAyN6jURfPDOfuirqXxD4I0IYbpGO+PDisCRwOFina6d/eoqfO5VcAr+qOgK92SjW3Dl3s/mR2ONM8hkgQLu/LTfY+It6ijdJ/cem5zQG1qNIdErJpW76N+x2Do6gPEyaUh3DPJooepmBuqsV97YLolvlas1DWn00qo6kYar1v2snLxfa7oZSykZwJP4VaA8pSmZSHEyzlku1k9oA56V+DJ8g/1zIPgjmJgkK0TCtDykELMV0eJ+jIgcXl25XKZABZNZAsQXB1RshfN6eMLiMaU4v6Ztccjn+v+pDiX8I8DxFw==);spacingTop=-3;spacingBottom=-3;spacingLeft=-3;spacingRight=-3;points=[[0,0.5,0],[1,0.5,0],[0.5,1,0],[0.5,0,0]];labelBackgroundColor=none;rounded=1;html=1;whiteSpace=wrap;" parent="64" vertex="1">
          <mxGeometry width="153" height="66" as="geometry" />
        </mxCell>
        <mxCell id="66" value="&lt;div style=&quot;font-size: 1px&quot;&gt;&lt;p style=&quot;align:center;margin-left:0;margin-right:0;margin-top:0px;margin-bottom:0px;text-indent:0;valign:middle;direction:ltr;&quot;&gt;&lt;font style=&quot;font-size:15.52px;font-family:Arial;color:#666666;direction:ltr;letter-spacing:0px;line-height:100%;opacity:1&quot;&gt;Remote application providing supporting services, e.g. image processing&lt;/font&gt;&lt;/p&gt;&lt;/div&gt;" style="text;vsdxID=58;fillColor=none;gradientColor=none;fillOpacity=0;strokeOpacity=0;spacingTop=-3;spacingBottom=-3;spacingLeft=-3;spacingRight=-3;points=[[0,0.5,0],[1,0.5,0],[0.5,1,0],[0.5,0,0]];labelBackgroundColor=none;rounded=1;strokeColor=none;html=1;whiteSpace=wrap;verticalAlign=middle;align=center;;html=1;" parent="64" vertex="1">
          <mxGeometry y="-0.48" width="154.3" height="66.94" as="geometry" />
        </mxCell>
        <mxCell id="67" style="vsdxID=60;fillColor=none;gradientColor=none;fillOpacity=0;strokeOpacity=0;spacingTop=-3;spacingBottom=-3;spacingLeft=-3;spacingRight=-3;points=[[0,0.5,0],[1,0.5,0],[0.5,1,0],[0.5,0,0]];labelBackgroundColor=none;rounded=1;strokeColor=none;html=1;whiteSpace=wrap;" parent="BMRI44_Pc0IovrskJfD4-86" vertex="1">
          <mxGeometry x="481" y="350" width="134" height="18" as="geometry" />
        </mxCell>
        <mxCell id="68" style="vsdxID=61;fillColor=#ffffff;gradientColor=none;fillOpacity=0;strokeOpacity=0;shape=stencil(vVTbdoMgEPwaHuWwkHh5TtMf6BdwKlFOrXiQNqZf39W1OaJJ+9S8wcyswyysTB36WneGSdEH797M2ZahZuqJSWnb2ngbcMXUkanDyXlTeffRlrTvNCqlmBBTUg2Maim0f32xX4YwwRVkeyKo8t19jo7DzBN1oR3KxW5CnkmM3xpdZrHkKie9nwsg5bki6Kr5AS6Rw5DowfaJd0EH69qIa7SvTIJeyanRVUT1Z2O6BQzL0zW2XUQpMg7ZDeubURQXqygSeA5RFBD3uvOANGvzrODFbzeT71Zx8LBpFGfbn6vH/8fZPIsC8+zvB4JNIMAri5/atkHpo+L8MTa4mAaURtc2Dc33kl8PNEL0M1DHbw==);spacingTop=-3;spacingBottom=-3;spacingLeft=-3;spacingRight=-3;points=[[0,0.5,0],[1,0.5,0],[0.5,1,0],[0.5,0,0]];labelBackgroundColor=none;rounded=1;html=1;whiteSpace=wrap;" parent="67" vertex="1">
          <mxGeometry width="134" height="18" as="geometry" />
        </mxCell>
        <mxCell id="69" value="&lt;div style=&quot;font-size: 1px&quot;&gt;&lt;p style=&quot;align:right;margin-left:0;margin-right:0;margin-top:0px;margin-bottom:0px;text-indent:0;valign:middle;direction:ltr;&quot;&gt;&lt;font style=&quot;font-size:9.88px;font-family:Arial;color:#c92d39;direction:ltr;letter-spacing:0px;line-height:100%;opacity:1&quot;&gt;&lt;b&gt;Token endpoint&lt;/b&gt;&lt;/font&gt;&lt;/p&gt;&lt;/div&gt;" style="text;vsdxID=60;fillColor=none;gradientColor=none;fillOpacity=0;strokeOpacity=0;spacingTop=-3;spacingBottom=-3;spacingLeft=-3;spacingRight=-3;points=[[0,0.5,0],[1,0.5,0],[0.5,1,0],[0.5,0,0]];labelBackgroundColor=none;rounded=1;strokeColor=none;html=1;whiteSpace=wrap;verticalAlign=middle;align=right;;html=1;" parent="67" vertex="1">
          <mxGeometry y="-0.95" width="134.36" height="18.99" as="geometry" />
        </mxCell>
        <mxCell id="70" style="vsdxID=62;fillColor=none;gradientColor=none;fillOpacity=0;strokeColor=none;strokeWidth=0;spacingTop=-3;spacingBottom=-3;spacingLeft=-3;spacingRight=-3;points=[[0,0.5,0],[1,0.5,0],[0.5,1,0],[0.5,0,0]];labelBackgroundColor=none;rounded=0;html=1;whiteSpace=wrap;" parent="BMRI44_Pc0IovrskJfD4-86" vertex="1">
          <mxGeometry x="635" y="342" width="163" height="131" as="geometry" />
        </mxCell>
        <mxCell id="71" style="vsdxID=63;fillColor=#ffffff;gradientColor=none;fillOpacity=0;shape=stencil(pZFNDsIgEIVPw7YZhhgPUOsFPAERlIkIDcX6c3op4wJNXHU38973wuQhVD85PVqBMOUUL/ZOJjuhdgKRgrOJcpmEGoTqTzHZc4q3YHgfdSERqmINZ+RCI+h0PNDLsgadktsNG5y8xnl58fHx2Xq2255BT6EBJUAHcgVdJfwfgRX01yVlqO1wb+Q9l9v6v20WiX9CDW8=);strokeColor=none;strokeWidth=0;spacingTop=-3;spacingBottom=-3;spacingLeft=-3;spacingRight=-3;points=[[0,0.5,0],[1,0.5,0],[0.5,1,0],[0.5,0,0]];labelBackgroundColor=none;rounded=1;html=1;whiteSpace=wrap;" parent="70" vertex="1">
          <mxGeometry width="163" height="131" as="geometry" />
        </mxCell>
        <mxCell id="72" value="&lt;div style=&quot;font-size: 1px&quot;&gt;&lt;p style=&quot;align:center;margin-left:0;margin-right:0;margin-top:0px;margin-bottom:0px;text-indent:0;valign:middle;direction:ltr;&quot;&gt;&lt;font style=&quot;font-size:15.52px;font-family:Arial;color:#666666;direction:ltr;letter-spacing:0px;line-height:100%;opacity:1&quot;&gt;SF creates or updates asset object based on the actor token&lt;br/&gt;&lt;/font&gt;&lt;/p&gt;&lt;p style=&quot;align:center;margin-left:0;margin-right:0;margin-top:0px;margin-bottom:0px;text-indent:0;valign:middle;direction:ltr;&quot;&gt;&lt;font style=&quot;font-size:15.52px;font-family:Arial;color:#666666;direction:ltr;letter-spacing:0px;line-height:100%;opacity:1&quot;&gt;publishes an Asset Token Event&lt;br/&gt;&lt;/font&gt;&lt;/p&gt;&lt;p style=&quot;align:left;margin-left:30;margin-right:0;margin-top:0px;margin-bottom:0px;text-indent:0;valign:middle;direction:ltr;&quot;&gt;&lt;ul style=&quot;margin: 0;list-style-type: disc&quot;&gt;&lt;font style=&quot;font-size:15.52px;font-family:Arial;color:#666666;direction:ltr;letter-spacing:0px;line-height:100%;opacity:1&quot;&gt;&lt;li&gt;issues token&lt;/font&gt;&lt;/li&gt;&lt;/ul&gt;&lt;/p&gt;&lt;/div&gt;" style="text;vsdxID=62;fillColor=none;gradientColor=none;fillOpacity=0;strokeColor=none;strokeWidth=0;spacingTop=-3;spacingBottom=-3;spacingLeft=-3;spacingRight=-3;points=[[0,0.5,0],[1,0.5,0],[0.5,1,0],[0.5,0,0]];labelBackgroundColor=none;rounded=0;html=1;whiteSpace=wrap;verticalAlign=middle;align=center;;html=1;" parent="70" vertex="1">
          <mxGeometry y="-0.45" width="163.32" height="131.51" as="geometry" />
        </mxCell>
        <mxCell id="73" style="vsdxID=64;fillColor=none;gradientColor=none;fillOpacity=0;strokeColor=none;strokeWidth=0;spacingTop=-3;spacingBottom=-3;spacingLeft=-3;spacingRight=-3;points=[[0,0.5,0],[1,0.5,0],[0.5,1,0],[0.5,0,0]];labelBackgroundColor=none;rounded=0;html=1;whiteSpace=wrap;" parent="BMRI44_Pc0IovrskJfD4-86" vertex="1">
          <mxGeometry x="837" y="530" width="163" height="84" as="geometry" />
        </mxCell>
        <mxCell id="74" style="vsdxID=65;fillColor=#ffffff;gradientColor=none;fillOpacity=0;shape=stencil(pZFLDsIwDERP423lxEIcoJQLcIKIGBIRkiot5XN60ppFQGIDO8/MsyyNgdrBmZ5B4zDmdOKrt6MD2oDWPjrOfiwTUAfUHlLmY06XaEX3ppAaF4et7KiZ1mjyfucfLB42pNYrCWTznKb54u2VS3Sv1VbA4GMFKsQG1R90sb7z+Cv6BpZh6UUa8yFIrXX+2WOx5AfUPQE=);strokeColor=none;strokeWidth=0;spacingTop=-3;spacingBottom=-3;spacingLeft=-3;spacingRight=-3;points=[[0,0.5,0],[1,0.5,0],[0.5,1,0],[0.5,0,0]];labelBackgroundColor=none;rounded=1;html=1;whiteSpace=wrap;" parent="73" vertex="1">
          <mxGeometry width="163" height="84" as="geometry" />
        </mxCell>
        <mxCell id="75" value="&lt;div style=&quot;font-size: 1px&quot;&gt;&lt;p style=&quot;align:center;margin-left:0;margin-right:0;margin-top:0px;margin-bottom:0px;text-indent:0;valign:middle;direction:ltr;&quot;&gt;&lt;font style=&quot;font-size:15.52px;font-family:Arial;color:#666666;direction:ltr;letter-spacing:0px;line-height:100%;opacity:1&quot;&gt;Verify asset token signature&lt;br/&gt;&lt;/font&gt;&lt;/p&gt;&lt;p style=&quot;align:center;margin-left:0;margin-right:0;margin-top:0px;margin-bottom:0px;text-indent:0;valign:middle;direction:ltr;&quot;&gt;&lt;font style=&quot;font-size:15.52px;font-family:Arial;color:#666666;direction:ltr;letter-spacing:0px;line-height:100%;opacity:1&quot;&gt;Validate token&lt;br/&gt;&lt;/font&gt;&lt;/p&gt;&lt;p style=&quot;align:left;margin-left:30;margin-right:0;margin-top:0px;margin-bottom:0px;text-indent:0;valign:middle;direction:ltr;&quot;&gt;&lt;ul style=&quot;margin: 0;list-style-type: disc&quot;&gt;&lt;font style=&quot;font-size:15.52px;font-family:Arial;color:#666666;direction:ltr;letter-spacing:0px;line-height:100%;opacity:1&quot;&gt;&lt;li&gt;Carry out authenticated processing&lt;/font&gt;&lt;/li&gt;&lt;/ul&gt;&lt;/p&gt;&lt;/div&gt;" style="text;vsdxID=64;fillColor=none;gradientColor=none;fillOpacity=0;strokeColor=none;strokeWidth=0;spacingTop=-3;spacingBottom=-3;spacingLeft=-3;spacingRight=-3;points=[[0,0.5,0],[1,0.5,0],[0.5,1,0],[0.5,0,0]];labelBackgroundColor=none;rounded=0;html=1;whiteSpace=wrap;verticalAlign=middle;align=center;;html=1;" parent="73" vertex="1">
          <mxGeometry y="-0.03" width="163.32" height="84.51" as="geometry" />
        </mxCell>
        <mxCell id="76" style="vsdxID=1;edgeStyle=none;dashed=1;startArrow=none;endArrow=none;startSize=5;endSize=5;strokeColor=#666666;spacingTop=-3;spacingBottom=-3;spacingLeft=-3;spacingRight=-3;verticalAlign=middle;html=1;labelBackgroundColor=none;rounded=1;" parent="BMRI44_Pc0IovrskJfD4-86" edge="1">
          <mxGeometry relative="1" as="geometry">
            <mxPoint as="offset" />
            <Array as="points" />
            <mxPoint x="828" y="204.00000000000003" as="sourcePoint" />
            <mxPoint x="828" y="636" as="targetPoint" />
          </mxGeometry>
        </mxCell>
        <mxCell id="77" style="vsdxID=4;edgeStyle=none;dashed=1;startArrow=none;endArrow=none;startSize=5;endSize=5;strokeColor=#666666;spacingTop=-3;spacingBottom=-3;spacingLeft=-3;spacingRight=-3;verticalAlign=middle;html=1;labelBackgroundColor=none;rounded=1;" parent="BMRI44_Pc0IovrskJfD4-86" edge="1">
          <mxGeometry relative="1" as="geometry">
            <mxPoint as="offset" />
            <Array as="points" />
            <mxPoint x="411" y="204.00000000000003" as="sourcePoint" />
            <mxPoint x="411" y="636" as="targetPoint" />
          </mxGeometry>
        </mxCell>
        <mxCell id="78" style="vsdxID=7;edgeStyle=none;dashed=1;startArrow=none;endArrow=none;startSize=5;endSize=5;strokeColor=#666666;spacingTop=-3;spacingBottom=-3;spacingLeft=-3;spacingRight=-3;verticalAlign=middle;html=1;labelBackgroundColor=none;rounded=1;" parent="BMRI44_Pc0IovrskJfD4-86" edge="1">
          <mxGeometry relative="1" as="geometry">
            <mxPoint as="offset" />
            <Array as="points" />
            <mxPoint x="629" y="204.00000000000003" as="sourcePoint" />
            <mxPoint x="629" y="636" as="targetPoint" />
          </mxGeometry>
        </mxCell>
        <mxCell id="79" value="&lt;div style=&quot;font-size: 1px&quot;&gt;&lt;p style=&quot;align:center;margin-left:0;margin-right:0;margin-top:0px;margin-bottom:0px;text-indent:0;valign:middle;direction:ltr;&quot;&gt;&lt;font style=&quot;font-size:18.34px;font-family:Arial;color:#666666;direction:ltr;letter-spacing:0px;line-height:100%;opacity:1&quot;&gt;&lt;b&gt;Register Actor Token &lt;/b&gt;&lt;/font&gt;&lt;/p&gt;&lt;/div&gt;" style="vsdxID=10;edgeStyle=none;startArrow=none;endArrow=block;startSize=5;endSize=5;strokeWidth=4;strokeColor=#999999;spacingTop=-3;spacingBottom=-3;spacingLeft=-3;spacingRight=-3;verticalAlign=middle;html=1;labelBackgroundColor=none;rounded=1;align=center;" parent="BMRI44_Pc0IovrskJfD4-86" edge="1">
          <mxGeometry relative="1" as="geometry">
            <mxPoint y="49" as="offset" />
            <Array as="points">
              <mxPoint x="520.27" y="346" />
              <mxPoint x="520.27" y="346.03999999999996" />
            </Array>
            <mxPoint x="421" y="346" as="sourcePoint" />
            <mxPoint x="619" y="346" as="targetPoint" />
          </mxGeometry>
        </mxCell>
        <mxCell id="80" value="&lt;div style=&quot;font-size: 1px&quot;&gt;&lt;p style=&quot;align:center;margin-left:0;margin-right:0;margin-top:0px;margin-bottom:0px;text-indent:0;valign:middle;direction:ltr;&quot;&gt;&lt;font style=&quot;font-size:18.34px;font-family:Arial;color:#666666;direction:ltr;letter-spacing:0px;line-height:100%;opacity:1&quot;&gt;&lt;b&gt;Asset token&lt;/b&gt;&lt;/font&gt;&lt;/p&gt;&lt;/div&gt;" style="vsdxID=15;edgeStyle=none;startArrow=none;endArrow=block;startSize=5;endSize=5;strokeWidth=4;strokeColor=#999999;spacingTop=-3;spacingBottom=-3;spacingLeft=-3;spacingRight=-3;verticalAlign=middle;html=1;labelBackgroundColor=none;rounded=1;align=center;" parent="BMRI44_Pc0IovrskJfD4-86" edge="1">
          <mxGeometry relative="1" as="geometry">
            <mxPoint y="20" as="offset" />
            <Array as="points">
              <mxPoint x="519.73" y="422" />
              <mxPoint x="519.73" y="422.23" />
            </Array>
            <mxPoint x="619" y="422" as="sourcePoint" />
            <mxPoint x="421" y="422" as="targetPoint" />
          </mxGeometry>
        </mxCell>
        <mxCell id="81" value="&lt;div style=&quot;font-size: 1px&quot;&gt;&lt;p style=&quot;align:center;margin-left:0;margin-right:0;margin-top:0px;margin-bottom:0px;text-indent:0;valign:middle;direction:ltr;&quot;&gt;&lt;font style=&quot;font-size:18.34px;font-family:Arial;color:#666666;direction:ltr;letter-spacing:0px;line-height:100%;opacity:1&quot;&gt;&lt;b&gt;API request&lt;/b&gt;&lt;/font&gt;&lt;/p&gt;&lt;/div&gt;" style="vsdxID=18;edgeStyle=none;startArrow=none;endArrow=block;startSize=5;endSize=5;strokeWidth=4;strokeColor=#999999;spacingTop=-3;spacingBottom=-3;spacingLeft=-3;spacingRight=-3;verticalAlign=middle;html=1;labelBackgroundColor=none;rounded=1;align=center;" parent="BMRI44_Pc0IovrskJfD4-86" edge="1">
          <mxGeometry relative="1" as="geometry">
            <mxPoint x="-1" y="19" as="offset" />
            <Array as="points">
              <mxPoint x="513.55" y="533" />
              <mxPoint x="513.55" y="532.91" />
            </Array>
            <mxPoint x="208" y="533" as="sourcePoint" />
            <mxPoint x="819" y="533" as="targetPoint" />
          </mxGeometry>
        </mxCell>
        <mxCell id="82" value="&lt;div style=&quot;font-size: 1px&quot;&gt;&lt;p style=&quot;align:center;margin-left:0;margin-right:0;margin-top:0px;margin-bottom:0px;text-indent:0;valign:middle;direction:ltr;&quot;&gt;&lt;font style=&quot;font-size:18.34px;font-family:Arial;color:#666666;direction:ltr;letter-spacing:0px;line-height:100%;opacity:1&quot;&gt;&lt;b&gt;Obtain OAuth Access Token&lt;/b&gt;&lt;/font&gt;&lt;/p&gt;&lt;/div&gt;" style="vsdxID=39;edgeStyle=none;startArrow=block;endArrow=block;startSize=5;endSize=5;strokeWidth=4;strokeColor=#999999;spacingTop=-3;spacingBottom=-3;spacingLeft=-3;spacingRight=-3;verticalAlign=middle;html=1;labelBackgroundColor=none;rounded=1;align=center;" parent="BMRI44_Pc0IovrskJfD4-86" edge="1">
          <mxGeometry relative="1" as="geometry">
            <mxPoint y="70" as="offset" />
            <Array as="points">
              <mxPoint x="519.68" y="261" />
              <mxPoint x="519.68" y="261.23" />
            </Array>
            <mxPoint x="619" y="261" as="sourcePoint" />
            <mxPoint x="421" y="261" as="targetPoint" />
          </mxGeometry>
        </mxCell>
        <mxCell id="83" value="&lt;div style=&quot;font-size: 1px&quot;&gt;&lt;p style=&quot;align:center;margin-left:0;margin-right:0;margin-top:0px;margin-bottom:0px;text-indent:0;valign:middle;direction:ltr;&quot;&gt;&lt;font style=&quot;font-size:18.34px;font-family:Arial;color:#666666;direction:ltr;letter-spacing:0px;line-height:100%;opacity:1&quot;&gt;&lt;b&gt;API response&lt;/b&gt;&lt;/font&gt;&lt;/p&gt;&lt;/div&gt;" style="vsdxID=42;edgeStyle=none;startArrow=none;endArrow=block;startSize=5;endSize=5;strokeWidth=4;strokeColor=#999999;spacingTop=-3;spacingBottom=-3;spacingLeft=-3;spacingRight=-3;verticalAlign=middle;html=1;labelBackgroundColor=none;rounded=1;align=center;" parent="BMRI44_Pc0IovrskJfD4-86" edge="1">
          <mxGeometry relative="1" as="geometry">
            <mxPoint y="24" as="offset" />
            <Array as="points">
              <mxPoint x="513.44" y="586" />
              <mxPoint x="513.44" y="586.1" />
            </Array>
            <mxPoint x="819" y="586" as="sourcePoint" />
            <mxPoint x="208" y="586" as="targetPoint" />
          </mxGeometry>
        </mxCell>
        <mxCell id="84" style="vsdxID=43;edgeStyle=none;dashed=1;startArrow=none;endArrow=none;startSize=5;endSize=5;strokeColor=#666666;spacingTop=-3;spacingBottom=-3;spacingLeft=-3;spacingRight=-3;verticalAlign=middle;html=1;labelBackgroundColor=none;rounded=1;" parent="BMRI44_Pc0IovrskJfD4-86" edge="1">
          <mxGeometry relative="1" as="geometry">
            <mxPoint y="-1" as="offset" />
            <Array as="points" />
            <mxPoint x="198" y="204.00000000000003" as="sourcePoint" />
            <mxPoint x="198" y="639" as="targetPoint" />
          </mxGeometry>
        </mxCell>
        <mxCell id="85" value="&lt;div style=&quot;font-size: 1px&quot;&gt;&lt;p style=&quot;align:center;margin-left:0;margin-right:0;margin-top:0px;margin-bottom:0px;text-indent:0;valign:middle;direction:ltr;&quot;&gt;&lt;font style=&quot;font-size:18.34px;font-family:Arial;color:#666666;direction:ltr;letter-spacing:0px;line-height:100%;opacity:1&quot;&gt;&lt;b&gt;Obtain Device metatdata&lt;/b&gt;&lt;/font&gt;&lt;/p&gt;&lt;/div&gt;" style="vsdxID=48;edgeStyle=none;startArrow=block;endArrow=block;startSize=5;endSize=5;strokeWidth=4;strokeColor=#999999;spacingTop=-3;spacingBottom=-3;spacingLeft=-3;spacingRight=-3;verticalAlign=middle;html=1;labelBackgroundColor=none;rounded=1;align=center;" parent="BMRI44_Pc0IovrskJfD4-86" edge="1">
          <mxGeometry relative="1" as="geometry">
            <mxPoint y="60" as="offset" />
            <Array as="points">
              <mxPoint x="304.1" y="261" />
              <mxPoint x="304.1" y="260.90999999999997" />
            </Array>
            <mxPoint x="401" y="261" as="sourcePoint" />
            <mxPoint x="208" y="261" as="targetPoint" />
          </mxGeometry>
        </mxCell>
        <mxCell id="86" value="&lt;div style=&quot;font-size: 1px&quot;&gt;&lt;p style=&quot;align:center;margin-left:0;margin-right:0;margin-top:0px;margin-bottom:0px;text-indent:0;valign:middle;direction:ltr;&quot;&gt;&lt;font style=&quot;font-size:18.34px;font-family:Arial;color:#666666;direction:ltr;letter-spacing:0px;line-height:100%;opacity:1&quot;&gt;&lt;b&gt;Asset token&lt;/b&gt;&lt;/font&gt;&lt;/p&gt;&lt;/div&gt;" style="vsdxID=53;edgeStyle=none;startArrow=none;endArrow=block;startSize=5;endSize=5;strokeWidth=4;strokeColor=#999999;spacingTop=-3;spacingBottom=-3;spacingLeft=-3;spacingRight=-3;verticalAlign=middle;html=1;labelBackgroundColor=none;rounded=1;align=center;" parent="BMRI44_Pc0IovrskJfD4-86" edge="1">
          <mxGeometry relative="1" as="geometry">
            <mxPoint x="-1" y="19" as="offset" />
            <Array as="points">
              <mxPoint x="304.14" y="440" />
              <mxPoint x="304.14" y="440.48" />
            </Array>
            <mxPoint x="401" y="440" as="sourcePoint" />
            <mxPoint x="208" y="440" as="targetPoint" />
          </mxGeometry>
        </mxCell>
      </root>
    </mxGraphModel>
  </diagram>
</mxfile>
